# xmcd
#
# Track frame offsets: 
#        150
#        13575
#        41700
#        55952
#        69602
#        83102
#        111977
#        136052
#        151202
#        181427
#        213302
#        238952
#        258902
#
# Disc length: 3860 seconds
#
# Revision: 2
# Processed by: cddbd v1.5.2PL0 Copyright (c) Steve Scherf et al.
# Submitted via: ExactAudioCopyFreeDBPlugin 1.0
#
DISCID=b40f120d
DTITLE=Various Artist - A story of Jazz - CD 2
DYEAR=2007
DGENRE=Jazz
TTITLE0=The Miles Davis Nonet - Boplicity
TTITLE1=John Coltrane - Just friends
TTITLE2=Thelonious Monk - Round midnight
TTITLE3=Chet Baker - But not for me
TTITLE4=Stan Getz - These foolish thinks
TTITLE5=Freddie Hubbard - Gypsy blue
TTITLE6=Bill evans and Jimmi Hall - My funny Valentine
TTITLE7=Gerry Mulligan - The song is you
TTITLE8=Dexter Gordon - I'm a fool to want you
TTITLE9=Herbie Hancock - Watermelon man
TTITLE10=Sonny Rollins - Tune up
TTITLE11=Paolo Fresu - In viaggio
TTITLE12=Wayne Shorter - Adam's apple
EXTD=
EXTT0=
EXTT1=
EXTT2=
EXTT3=
EXTT4=
EXTT5=
EXTT6=
EXTT7=
EXTT8=
EXTT9=
EXTT10=
EXTT11=
EXTT12=
PLAYORDER=
